<?xml version="1.0" encoding="utf-8"?>
<!-- Generator: Adobe Illustrator 27.9.0, SVG Export Plug-In . SVG Version: 6.00 Build 0)  -->
<svg version="1.1" id="Capa_1" xmlns="http://www.w3.org/2000/svg" xmlns:xlink="http://www.w3.org/1999/xlink" x="0px" y="0px"
	 viewBox="0 0 800 663.2" style="enable-background:new 0 0 800 663.2;" xml:space="preserve">
<style type="text/css">
	.st0{fill:#FFFFFF;}
</style>
<g>
	<g>
		<path class="st0" d="M595,443.6l97.9-383.3H800V0H646.1L623,90.4L0,89.9l66.2,353.7L595,443.6L595,443.6L595,443.6z M607.6,150.6
			l-59.4,232.7h-432L72.6,150.2L607.6,150.6z"/>
		<path class="st0" d="M512.5,663.2c53.1,0,96.4-43.2,96.4-96.4c0-53.1-43.2-96.4-96.4-96.4h-363c-53.1,0-96.4,43.2-96.4,96.4
			c0,53.1,43.2,96.4,96.4,96.4s96.4-43.2,96.4-96.4c0-12.8-2.5-24.9-7-36.1h184.4c-4.5,11.2-7,23.3-7,36.1
			C416.2,619.9,459.4,663.2,512.5,663.2z M185.6,566.8c0,19.9-16.2,36.1-36.1,36.1s-36.1-16.2-36.1-36.1c0-19.9,16.2-36.1,36.1-36.1
			C169.4,530.7,185.6,546.9,185.6,566.8z M548.6,566.8c0,19.9-16.2,36.1-36.1,36.1c-19.9,0-36.1-16.2-36.1-36.1
			c0-19.9,16.2-36.1,36.1-36.1C532.4,530.7,548.6,546.9,548.6,566.8z"/>
	</g>
</g>
</svg>
